<?xml version="1.0" encoding="utf-8"?>
<!-- Generator: Adobe Illustrator 23.0.4, SVG Export Plug-In . SVG Version: 6.00 Build 0)  -->
<svg version="1.1" id="Layer_1" xmlns="http://www.w3.org/2000/svg" xmlns:xlink="http://www.w3.org/1999/xlink" x="0px" y="0px"
	 viewBox="0 0 600 600" style="enable-background:new 0 0 600 600;" xml:space="preserve">
<style type="text/css">
	.st0{fill:#006837;}
	.st1{fill:#006837;stroke:#006837;stroke-width:4;stroke-miterlimit:10;}
	.st2{fill:url(#SVGID_1_);}
</style>
<path class="st0" d="M552.5,477.32c0.02-0.77,0.06-1.54,0.06-2.32c0-2.11-0.1-4.19-0.26-6.25C544.8,249.1,370.44,71.82,152,59.67
	l0,0.34c-0.48-0.01-0.96-0.02-1.44-0.02c-53.02,0-96,36.94-96,82.5c0,45.56,42.98,82.5,96,82.5c0.09,0,0.18,0,0.28,0
	c38.38,5.93,67.72,38.14,67.72,77c0,39.59-30.45,72.25-69.89,77.29c-2.35-0.19-4.72-0.29-7.11-0.29c-48.6,0-88,39.62-88,88.5
	c0,48.88,39.4,88.5,88,88.5c47.74,0,86.59-38.23,87.96-85.9c0.03-0.01,0.07-0.02,0.11-0.03c-0.03-0.85-0.06-1.71-0.06-2.57
	c0-44.46,36.04-80.5,80.5-80.5s80.5,36.04,80.5,80.5c0,1.51-0.05,3-0.13,4.49l0.21,0.01c-0.04,1-0.07,1.99-0.07,3
	c0,45.29,36.26,82,81,82c43.31,0,78.68-34.42,80.89-77.71l0.08,0C552.53,478.63,552.51,477.98,552.5,477.32z"/>
<path class="st0" d="M554.5,478.32c0.02-0.77,0.06-1.54,0.06-2.32c0-2.11-0.1-4.19-0.26-6.25C546.8,250.1,372.44,72.82,154,60.67
	l0,0.34c-0.48-0.01-0.96-0.02-1.44-0.02c-53.02,0-96,36.94-96,82.5c0,45.56,42.98,82.5,96,82.5c0.09,0,0.18,0,0.28,0
	c38.38,5.93,67.72,38.14,67.72,77c0,39.59-30.45,72.25-69.89,77.29c-2.35-0.19-4.72-0.29-7.11-0.29c-48.6,0-88,39.62-88,88.5
	c0,48.88,39.4,88.5,88,88.5c47.74,0,86.59-38.23,87.96-85.9c0.03-0.01,0.07-0.02,0.11-0.03c-0.03-0.85-0.06-1.71-0.06-2.57
	c0-44.46,36.04-80.5,80.5-80.5s80.5,36.04,80.5,80.5c0,1.51-0.05,3-0.13,4.49l0.21,0.01c-0.04,1-0.07,1.99-0.07,3
	c0,45.29,36.26,82,81,82c43.31,0,78.68-34.42,80.89-77.71l0.08,0C554.53,479.63,554.51,478.98,554.5,478.32z"/>
<path class="st1" d="M554.5,469.32c0.02-0.77,0.06-1.54,0.06-2.32c0-2.11-0.1-4.19-0.26-6.25C546.8,241.1,372.44,63.82,154,51.67
	l0,0.34c-0.48-0.01-0.96-0.02-1.44-0.02c-53.02,0-96,36.94-96,82.5c0,45.56,42.98,82.5,96,82.5c0.09,0,0.18,0,0.28,0
	c38.38,5.93,67.72,38.14,67.72,77c0,39.59-30.45,72.25-69.89,77.29c-2.35-0.19-4.72-0.29-7.11-0.29c-48.6,0-88,39.62-88,88.5
	c0,48.88,39.4,88.5,88,88.5c47.74,0,86.59-38.23,87.96-85.9c0.03-0.01,0.07-0.02,0.11-0.03c-0.03-0.85-0.06-1.71-0.06-2.57
	c0-44.46,36.04-80.5,80.5-80.5s80.5,36.04,80.5,80.5c0,1.51-0.05,3-0.13,4.49l0.21,0.01c-0.04,1-0.07,1.99-0.07,3
	c0,45.29,36.26,82,81,82c43.31,0,78.68-34.42,80.89-77.71l0.08,0C554.53,470.63,554.51,469.98,554.5,469.32z"/>
<radialGradient id="SVGID_1_" cx="172.4031" cy="134.0806" r="325.7459" gradientUnits="userSpaceOnUse">
	<stop  offset="0" style="stop-color:#A1DEB3"/>
	<stop  offset="0.4217" style="stop-color:#5EC67D"/>
	<stop  offset="1" style="stop-color:#22B14C"/>
</radialGradient>
<path class="st2" d="M556.5,463.32c0.02-0.77,0.06-1.54,0.06-2.32c0-2.11-0.1-4.19-0.26-6.25C548.8,235.1,374.44,57.82,156,45.67
	l0,0.34c-0.48-0.01-0.96-0.02-1.44-0.02c-53.02,0-96,36.94-96,82.5c0,45.56,42.98,82.5,96,82.5c0.09,0,0.18,0,0.28,0
	c38.38,5.93,67.72,38.14,67.72,77c0,39.59-30.45,72.25-69.89,77.29c-2.35-0.19-4.72-0.29-7.11-0.29c-48.6,0-88,39.62-88,88.5
	c0,48.88,39.4,88.5,88,88.5c47.74,0,86.59-38.23,87.96-85.9c0.03-0.01,0.07-0.02,0.11-0.03c-0.03-0.85-0.06-1.71-0.06-2.57
	c0-44.46,36.04-80.5,80.5-80.5s80.5,36.04,80.5,80.5c0,1.51-0.05,3-0.13,4.49l0.21,0.01c-0.04,1-0.07,1.99-0.07,3
	c0,45.29,36.26,82,81,82c43.31,0,78.68-34.42,80.89-77.71l0.08,0C556.53,464.63,556.51,463.98,556.5,463.32z"/>
</svg>
